<svg width="449.60001" height="118.4" xmlns="http://www.w3.org/2000/svg">
 <metadata id="metadata8">image/svg+xml</metadata>
 <defs>
  <clipPath clipPathUnits="userSpaceOnUse" id="clipPath18">
   <path clip-rule="evenodd" d="m0.00001,0l337.2,0l0,88.8l-337.2,0l0,-88.8z" id="path16"/>
  </clipPath>
  <clipPath clipPathUnits="userSpaceOnUse" id="clipPath30">
   <path clip-rule="evenodd" d="m0.00001,0l337.2,0l0,88.8l-337.2,0l0,-88.8z" id="path28"/>
  </clipPath>
  <clipPath clipPathUnits="userSpaceOnUse" id="clipPath38">
   <path clip-rule="evenodd" d="m0.00001,0l337.2,0l0,88.8l-337.2,0l0,-88.8z" id="path36"/>
  </clipPath>
  <clipPath clipPathUnits="userSpaceOnUse" id="clipPath50">
   <path clip-rule="evenodd" d="m0.00001,0l337.2,0l0,88.8l-337.2,0l0,-88.8z" id="path48"/>
  </clipPath>
  <clipPath clipPathUnits="userSpaceOnUse" id="clipPath58">
   <path clip-rule="evenodd" d="m0.00001,0l337.2,0l0,88.8l-337.2,0l0,-88.8z" id="path56"/>
  </clipPath>
  <clipPath clipPathUnits="userSpaceOnUse" id="clipPath70">
   <path clip-rule="evenodd" d="m0.00001,0l337.2,0l0,88.8l-337.2,0l0,-88.8z" id="path68"/>
  </clipPath>
  <clipPath clipPathUnits="userSpaceOnUse" id="clipPath78">
   <path clip-rule="evenodd" d="m0.00001,0l337.2,0l0,88.8l-337.2,0l0,-88.8z" id="path76"/>
  </clipPath>
  <clipPath clipPathUnits="userSpaceOnUse" id="clipPath90">
   <path clip-rule="evenodd" d="m0.00001,0l337.2,0l0,88.8l-337.2,0l0,-88.8z" id="path88"/>
  </clipPath>
  <clipPath clipPathUnits="userSpaceOnUse" id="clipPath98">
   <path clip-rule="evenodd" d="m0.00001,0l337.2,0l0,88.8l-337.2,0l0,-88.8z" id="path96"/>
  </clipPath>
  <clipPath clipPathUnits="userSpaceOnUse" id="clipPath110">
   <path clip-rule="evenodd" d="m0.00001,0l337.2,0l0,88.8l-337.2,0l0,-88.8z" id="path108"/>
  </clipPath>
  <clipPath clipPathUnits="userSpaceOnUse" id="clipPath118">
   <path clip-rule="evenodd" d="m0.00001,0l337.2,0l0,88.8l-337.2,0l0,-88.8z" id="path116"/>
  </clipPath>
  <clipPath clipPathUnits="userSpaceOnUse" id="clipPath130">
   <path clip-rule="evenodd" d="m0.00001,0l337.2,0l0,88.8l-337.2,0l0,-88.8z" id="path128"/>
  </clipPath>
  <clipPath clipPathUnits="userSpaceOnUse" id="clipPath138">
   <path clip-rule="evenodd" d="m0.00001,0l337.2,0l0,88.8l-337.2,0l0,-88.8z" id="path136"/>
  </clipPath>
  <clipPath clipPathUnits="userSpaceOnUse" id="clipPath150">
   <path clip-rule="evenodd" d="m0.00001,0l337.2,0l0,88.8l-337.2,0l0,-88.8z" id="path148"/>
  </clipPath>
 </defs>
 <g>
  <title>background</title>
  <rect fill="none" id="canvas_background" height="602" width="802" y="-1" x="-1"/>
 </g>
 <g>
  <title>Layer 1</title>
  <g id="g10" transform="matrix(1.3333333,0,0,-1.3333333,0,118.4) ">
   <g id="g12">
    <g id="g14" clip-path="url(#clipPath18)">
     <text font-style="italic" font-weight="normal" font-size="12.504px" font-family="Arial" fill="#000000" fill-rule="nonzero" transform="matrix(1,0,0,-1,19.8,70.176) " id="text22">
      <tspan fill="#000000" x="0 4.076304 10.678416 17.280527 20.406528 26.283407 32.885521 39.487633 46.089745 52.691856 55.817856 58.943855 65.545967 68.671967 75.274078 81.87619 88.478302 95.080414 100.9573 107.55941 110.68541 117.40005 123.27694 126.40294 129.52893 136.13104 142.73315 149.33527 152.46127 159.06339 164.94026 170.81714 177.41925 179.82002 182.22079 188.82291 195.42502 198.55101 205.15312 208.27913 214.88124 221.48335 228.08546 234.80011 240.67699 247.2791 250.40511 259.04538 265.64749 272.2496 275.37558 278.50159 281.62759 288.22971 294.83182 300.70871" y="0" id="tspan20">"La chouette agence est une excellente agence web ! Les</tspan>
     </text>
    </g>
   </g>
   <g id="g24">
    <g id="g26" clip-path="url(#clipPath30)"/>
   </g>
   <g id="g32">
    <g id="g34" clip-path="url(#clipPath38)">
     <text font-style="italic" font-weight="normal" font-size="12.504px" font-family="Arial" fill="#000000" fill-rule="nonzero" transform="matrix(1,0,0,-1,24.24,55.752) " id="text42">
      <tspan fill="#000000" x="0 8.7653036 15.479952 22.194599 25.558176 32.272823 38.987473 45.101929 47.627735 54.342384 61.182072 67.896721 71.860489 77.862411 81.225983 87.940636 94.655281 97.893814 101.13235 105.20866 111.9233 118.76299 124.76492 130.76683 133.40518 136.64371 143.35835 146.72194 152.72386 159.43851 166.15315 169.51672 176.23137 180.19514 186.90979 190.87357 194.23714 196.76294 198.92613 205.76582 211.76775 217.76967 224.60934 231.32401 237.43846 244.15311 247.39165 254.10629 260.82092 264.18451 270.89917 277.6138 280.85236 284.8161 291.65579" y="0" id="tspan40">web designers ont réussi à capturer l'essence de notre</tspan>
     </text>
    </g>
   </g>
   <g id="g44">
    <g id="g46" clip-path="url(#clipPath50)"/>
   </g>
   <g id="g52">
    <g id="g54" clip-path="url(#clipPath58)">
     <text font-style="italic" font-weight="normal" font-size="12.504px" font-family="Arial" fill="#000000" fill-rule="nonzero" transform="matrix(1,0,0,-1,20.76,41.328) " id="text62">
      <tspan fill="#000000" x="0 6.8396878 13.679376 17.042952 21.00672 27.846409 34.561054 38.63736 41.275703 47.39016 54.104809 57.468384 64.308075 67.671646 70.910187 77.74987 81.113449 83.639259 85.914986 88.553329 95.393013 98.631554 105.47124 112.31093 116.2747 123.11439 127.19069 130.55426 137.26891 140.63249 147.47218 154.18683 157.5504 161.51418 168.35385 171.71744 177.83189 180.47023 183.70877 190.54846 193.91203 197.2756 206.04091 212.8806 215.51895 222.35863 225.59717 232.31181 239.1515 245.9912 252.10565 255.46922 262.18387 265.54745 272.38715 275.02548 281.74014 288.5798 291.94339 298.65805" y="0" id="tspan60">entreprise et à l'intégrer à notre site. Cela nous a aidé à</tspan>
     </text>
    </g>
   </g>
   <g id="g64">
    <g id="g66" clip-path="url(#clipPath70)"/>
   </g>
   <g id="g72">
    <g id="g74" clip-path="url(#clipPath78)">
     <text font-style="italic" font-weight="normal" font-size="12.504px" font-family="Arial" fill="#000000" fill-rule="nonzero" transform="matrix(1,0,0,-1,72.864,27.048) " id="text82">
      <tspan fill="#000000" x="0 6.7146478 13.429296 20.143944 26.983631 29.509439 36.224087 40.187855 43.426392 50.266079 56.980728 62.982647 66.346222 72.348145 79.06279 85.902481 89.141014 95.855667 101.97012 105.20866 111.9233 118.63795 122.00153 124.52734 127.05315 133.76779 140.60748 147.32213 150.56067 157.40034 160.63889 167.35353 173.46799 180.18263 186.89729 190.13582" y="0" id="tspan80">doubler nos ventes en ligne à Lyon."</tspan>
     </text>
    </g>
   </g>
   <g id="g84">
    <g id="g86" clip-path="url(#clipPath90)"/>
   </g>
   <g id="g92">
    <g id="g94" clip-path="url(#clipPath98)">
     <text font-weight="normal" font-size="9.024px" font-family="ArialMT" fill="#000000" fill-rule="nonzero" transform="matrix(1,0,0,-1,88.224,15.864) " id="text102">
      <tspan fill="#000000" x="0 7.0838399 12.00192 16.080769 17.876545 25.195007 29.995775 32.278847 39.001728 43.802498 45.59827 50.39904 55.082497 57.843842 62.644608" y="0" id="tspan100">Maxime Guibard,</tspan>
     </text>
    </g>
   </g>
   <g id="g104">
    <g id="g106" clip-path="url(#clipPath110)"/>
   </g>
   <g id="g112">
    <g id="g114" clip-path="url(#clipPath118)">
     <text font-weight="normal" font-size="8.52px" font-family="ArialMT" fill="#000000" fill-rule="nonzero" transform="matrix(1,0,0,-1,155.23,15.864) " id="text122">
      <tspan fill="#000000" x="0 5.40168 11.28048" y="0" id="tspan120">PDG</tspan>
     </text>
    </g>
   </g>
   <g id="g124">
    <g id="g126" clip-path="url(#clipPath130)"/>
   </g>
   <g id="g132">
    <g id="g134" clip-path="url(#clipPath138)">
     <text font-weight="normal" font-size="9.024px" font-family="ArialMT" fill="#000000" fill-rule="nonzero" transform="matrix(1,0,0,-1,175.15,15.864) " id="text142">
      <tspan fill="#000000" x="0 4.8007679 9.4842243 11.767296 17.524609 19.80768 24.003839 28.804607 33.000767 35.157505 37.440575 42.241344 47.04211 49.686146 54.00864 58.809406 63.492863 65.775932 68.059006 72.742462" y="0" id="tspan140">de À vos fourchettes</tspan>
     </text>
    </g>
   </g>
   <g id="g144">
    <g id="g146" clip-path="url(#clipPath150)"/>
   </g>
  </g>
 </g>
</svg>