<?xml version="1.0" standalone="no"?>
<!DOCTYPE svg PUBLIC "-//W3C//DTD SVG 20010904//EN"
 "http://www.w3.org/TR/2001/REC-SVG-20010904/DTD/svg10.dtd">
<svg version="1.0" xmlns="http://www.w3.org/2000/svg"
 width="386.000000pt" height="72.000000pt" viewBox="0 0 386.000000 72.000000"
 preserveAspectRatio="xMidYMid meet">

<g transform="translate(0.000000,72.000000) scale(0.100000,-0.100000)"
fill="#000000" stroke="none">
<path d="M60 605 l34 -35 -32 -33 c-25 -26 -32 -41 -32 -74 0 -24 6 -46 15
-53 11 -9 15 -33 15 -87 l0 -74 51 -55 52 -54 106 0 107 0 52 53 52 53 0 70
c0 58 4 74 20 89 34 30 27 82 -17 127 l-37 38 34 29 c19 16 32 32 29 35 -3 3
-24 -10 -46 -29 -37 -32 -47 -35 -102 -35 -56 0 -61 -2 -75 -27 l-14 -28 -13
28 c-11 25 -16 27 -72 27 -54 0 -64 4 -103 35 -23 19 -46 35 -50 35 -4 0 7
-16 26 -35z m77 -67 c27 -25 29 -38 8 -38 -11 0 -15 -11 -15 -40 l0 -40 40 0
c33 0 40 3 40 20 0 25 12 25 34 1 16 -18 16 -21 1 -50 -15 -29 -19 -31 -72
-31 -52 0 -60 3 -95 37 -48 47 -50 79 -7 128 17 19 34 35 37 35 3 0 16 -10 29
-22z m117 -23 l19 -40 20 43 c20 40 23 42 64 42 24 0 43 -2 43 -5 0 -6 -99
-98 -116 -108 -10 -6 -33 9 -74 45 -33 29 -60 56 -60 61 0 4 19 7 42 5 39 -3
45 -7 62 -43z m246 -55 c0 -28 -8 -44 -34 -69 -31 -30 -37 -32 -92 -29 -52 3
-60 6 -74 30 -14 26 -13 29 8 50 l22 22 0 -22 c0 -19 5 -22 45 -22 l45 0 0 40
c0 29 -4 40 -15 40 -21 0 -19 10 7 37 l22 23 33 -32 c25 -24 33 -40 33 -68z
m-302 3 c3 -19 -1 -23 -22 -23 -21 0 -26 5 -26 26 0 21 4 25 23 22 14 -2 23
-11 25 -25z m202 2 c0 -20 -5 -25 -25 -25 -20 0 -25 5 -25 25 0 20 5 25 25 25
20 0 25 -5 25 -25z m-110 -85 c11 -21 -1 -60 -19 -60 -14 0 -21 42 -10 62 12
23 16 23 29 -2z m-199 -78 c-4 -67 -11 -66 -11 3 0 32 3 55 7 51 4 -4 6 -28 4
-54z m379 3 c0 -30 -4 -55 -10 -55 -5 0 -10 25 -10 55 0 30 5 55 10 55 6 0 10
-25 10 -55z m-216 8 l18 -38 19 38 20 38 60 -3 60 -3 3 -62 c2 -58 0 -65 -28
-92 -30 -29 -35 -30 -128 -32 -96 -2 -98 -1 -133 29 -33 30 -35 34 -35 97 l0
65 63 0 c63 0 63 0 81 -37z"/>
<path d="M1333 543 c-15 -5 -18 -259 -4 -282 15 -23 44 5 31 29 -6 10 -10 39
-10 63 0 36 5 48 25 61 59 39 85 12 85 -87 0 -68 6 -83 26 -66 9 8 10 18 3 35
-5 14 -8 47 -7 73 1 29 -3 55 -11 65 -17 20 -61 21 -87 1 -10 -8 -22 -15 -26
-15 -4 0 -8 29 -10 63 -2 46 -7 63 -15 60z"/>
<path d="M659 533 c-3 -32 3 -269 7 -275 3 -5 15 -2 26 6 19 14 24 13 49 -1
23 -14 30 -14 44 -3 14 11 12 14 -12 27 -15 8 -38 11 -55 8 l-27 -6 -3 122
c-2 87 -7 124 -15 127 -7 2 -13 0 -14 -5z"/>
<path d="M2167 524 c-3 -3 -3 -20 0 -37 4 -26 1 -34 -18 -42 -13 -5 -25 -16
-27 -23 -3 -11 0 -12 17 -3 20 11 21 10 21 -62 0 -43 5 -80 13 -90 11 -16 14
-15 42 7 l30 24 -27 -5 -28 -5 0 66 c0 49 3 66 14 66 7 0 19 7 26 15 11 13 8
15 -14 15 -24 0 -26 4 -26 40 0 37 -8 49 -23 34z"/>
<path d="M2300 495 c0 -27 -7 -42 -27 -60 l-28 -23 28 5 27 5 0 -73 c0 -93 8
-108 44 -83 30 22 33 34 7 27 -22 -6 -29 21 -23 84 3 30 9 43 23 46 25 7 25
27 0 27 -16 0 -20 8 -23 37 -4 49 -28 57 -28 8z"/>
<path d="M3042 523 c-10 -4 -10 -8 -1 -19 6 -8 8 -25 5 -40 -6 -22 -11 -25
-36 -19 -56 12 -120 -41 -120 -101 0 -38 19 -56 57 -53 15 1 35 -1 43 -4 8 -3
24 -7 35 -9 24 -4 32 -42 15 -64 -21 -24 -87 -18 -117 12 -22 22 -27 24 -40
11 -12 -12 -10 -18 17 -41 44 -36 89 -35 134 4 54 48 57 110 5 110 -24 0 -24
2 0 41 15 24 17 38 10 56 -7 19 -4 30 12 52 14 19 19 36 14 50 -7 22 -10 23
-33 14z m-40 -110 c36 -32 14 -103 -32 -103 -20 0 -60 44 -60 66 0 19 37 54
57 54 9 0 25 -7 35 -17z"/>
<path d="M3362 440 c-39 -24 -42 -24 -42 -4 0 11 -5 14 -16 10 -9 -3 -16 -6
-17 -6 -1 0 -1 -37 1 -82 4 -82 18 -118 41 -104 7 5 7 15 1 32 -11 29 -13 84
-4 109 4 8 20 23 36 31 27 14 31 14 49 -2 15 -14 19 -31 19 -90 0 -68 11 -99
29 -78 10 13 -2 171 -14 182 -22 21 -51 21 -83 2z"/>
<path d="M852 434 c-12 -8 -22 -24 -22 -34 0 -25 22 -17 35 13 13 29 39 33 64
8 34 -34 27 -50 -19 -44 -33 5 -45 1 -64 -16 -33 -31 -37 -57 -14 -86 22 -29
54 -32 86 -9 21 15 24 15 35 0 18 -24 42 -5 28 22 -6 11 -11 48 -11 81 0 49
-4 62 -19 71 -28 15 -73 12 -99 -6z m96 -113 c-2 -15 -14 -31 -29 -40 -24 -13
-29 -13 -53 2 -33 22 -36 64 -4 76 12 4 37 3 55 -2 28 -9 33 -15 31 -36z"/>
<path d="M1183 430 c-38 -23 -67 -74 -59 -104 3 -13 15 -35 27 -49 29 -38 67
-36 105 5 16 18 20 25 8 15 -36 -30 -77 -20 -99 24 -19 36 -19 64 1 83 20 21
53 20 76 -1 29 -26 46 -1 19 26 -26 26 -37 26 -78 1z"/>
<path d="M1562 420 c-47 -46 -48 -101 -5 -144 31 -31 52 -33 87 -5 59 46 68
109 24 157 -30 31 -70 28 -106 -8z m82 -23 c15 -19 26 -45 26 -59 0 -22 -32
-68 -47 -68 -4 0 -22 14 -40 32 -37 36 -44 80 -16 110 24 27 49 22 77 -15z"/>
<path d="M1731 441 c-9 -6 -10 -11 -2 -15 6 -4 11 -36 11 -76 0 -95 33 -123
100 -86 21 12 26 12 36 -3 24 -32 37 2 35 91 -2 89 -9 106 -36 90 -12 -6 -14
-11 -6 -16 20 -13 13 -100 -10 -130 -22 -28 -60 -34 -77 -13 -6 7 -12 46 -14
87 -3 73 -11 88 -37 71z"/>
<path d="M1989 422 c-24 -21 -32 -39 -36 -74 -5 -40 -2 -50 20 -72 14 -14 37
-26 50 -26 25 0 77 34 77 51 0 5 -9 0 -20 -11 -11 -11 -26 -20 -34 -20 -15 0
-64 36 -56 42 3 2 24 17 48 32 49 34 65 72 37 93 -28 20 -51 16 -86 -15z m59
-4 c21 -21 13 -47 -25 -72 -28 -19 -39 -22 -45 -13 -31 49 31 124 70 85z"/>
<path d="M2434 416 c-27 -27 -34 -42 -34 -74 0 -51 31 -92 69 -92 30 0 81 33
81 52 0 7 -11 1 -26 -13 -23 -22 -27 -22 -51 -9 -39 22 -37 32 12 63 52 33 69
72 40 94 -30 21 -55 15 -91 -21z m66 -5 c16 -31 13 -39 -27 -65 -39 -27 -53
-22 -53 19 0 52 58 86 80 46z"/>
<path d="M2718 434 c-16 -8 -28 -23 -28 -34 0 -25 22 -17 35 13 6 12 18 23 28
25 23 5 57 -25 57 -49 0 -14 -7 -16 -40 -12 -33 5 -45 2 -65 -17 -62 -59 14
-150 77 -93 17 15 19 15 32 -3 24 -32 33 -5 27 79 -5 62 -10 82 -25 93 -25 18
-63 17 -98 -2z m92 -107 c0 -26 -28 -57 -52 -57 -24 0 -58 35 -58 60 0 27 35
40 77 27 23 -7 33 -16 33 -30z"/>
<path d="M3134 416 c-28 -28 -34 -41 -34 -78 0 -77 66 -113 124 -67 14 11 26
25 26 31 0 7 -11 1 -26 -13 -23 -22 -27 -22 -51 -9 -39 22 -37 32 13 65 51 34
67 71 39 92 -30 21 -55 15 -91 -21z m66 -7 c15 -28 8 -42 -33 -67 -40 -23 -47
-20 -47 21 0 57 57 90 80 46z"/>
<path d="M3564 431 c-67 -41 -82 -98 -38 -150 34 -41 71 -41 109 -1 16 17 24
30 18 30 -6 0 -16 -7 -23 -15 -28 -34 -87 -3 -105 56 -16 50 53 90 90 53 25
-26 44 -1 20 26 -22 25 -32 25 -71 1z"/>
<path d="M3727 430 c-51 -40 -59 -134 -14 -165 35 -24 70 -18 103 17 l29 32
-29 -22 c-35 -27 -47 -27 -76 -4 l-23 18 52 37 c36 26 51 44 51 60 0 48 -48
62 -93 27z m57 -22 c14 -23 0 -47 -43 -71 l-31 -19 0 37 c0 20 5 45 11 56 12
24 47 22 63 -3z"/>
<path d="M133 73 c20 -2 54 -2 75 0 20 2 3 4 -38 4 -41 0 -58 -2 -37 -4z"/>
<path d="M337 73 c18 -2 50 -2 70 0 21 2 7 4 -32 4 -38 0 -55 -2 -38 -4z"/>
</g>
</svg>
